<svg width="28" height="18" viewBox="0 0 28 18" fill="none" xmlns="http://www.w3.org/2000/svg">
<g id="Maestro">
<path id="Left" d="M17.072 8.63232C17.072 13.2617 13.3622 17.0145 8.78601 17.0145C4.20977 17.0145 0.5 13.2617 0.5 8.63232C0.5 4.00296 4.20977 0.250122 8.78601 0.250122C13.3622 0.250122 17.072 4.00296 17.072 8.63232Z" fill="#ED0006"/>
<path id="Right" d="M27.821 8.63232C27.821 13.2617 24.1113 17.0145 19.535 17.0145C14.9588 17.0145 11.249 13.2617 11.249 8.63232C11.249 4.00296 14.9588 0.250122 19.535 0.250122C24.1113 0.250122 27.821 4.00296 27.821 8.63232Z" fill="#2F80ED"/>
<path id="Middle" fill-rule="evenodd" clip-rule="evenodd" d="M14.1612 2.25244C15.9428 3.78989 17.0725 6.07759 17.0725 8.6322C17.0725 11.1868 15.9428 13.4745 14.1612 15.012C12.3797 13.4745 11.25 11.1868 11.25 8.6322C11.25 6.07759 12.3797 3.78989 14.1612 2.25244Z" fill="#6C6BBD"/>
</g>
</svg>
