<svg width="432" height="137" viewBox="0 0 432 137" fill="none" xmlns="http://www.w3.org/2000/svg">
<path d="M399.546 89.0811C395.327 89.0811 390.687 89.0811 386.469 89.0811C385.204 89.0811 384.782 88.6575 383.938 87.8103C381.829 83.9978 379.298 80.609 376.768 76.7965C376.768 76.3729 376.346 75.9493 375.924 75.9493C372.971 79.7618 370.018 83.9978 367.488 88.2339C367.066 89.0811 366.644 89.0811 365.379 89.0811C357.364 89.0811 349.771 89.0811 341.757 89.0811C340.491 89.0811 340.07 88.6575 340.491 87.8103C340.491 86.5394 340.491 85.2686 340.491 83.9978H340.07C336.695 89.0811 331.633 90.3519 325.728 89.5047C318.135 88.6575 314.761 83.9978 313.917 75.9493C313.495 67.0536 313.917 58.5815 313.495 49.6858C313.495 48.8386 313.495 48.8386 314.339 48.8386C317.713 48.8386 321.51 48.8386 324.884 48.8386C325.728 48.8386 325.728 49.2622 325.728 50.1094C325.728 56.4635 325.728 62.394 325.728 68.748C325.728 70.8661 325.728 72.5605 326.15 74.6785C326.993 77.2201 328.681 78.9146 331.212 78.9146C334.164 78.9146 336.695 78.4909 337.961 75.9493C339.226 73.8313 339.226 71.7133 339.226 69.5952C339.226 63.2412 339.226 56.8871 339.226 50.533C339.226 49.2622 339.648 48.8386 340.913 48.8386C343.866 48.8386 347.241 48.8386 350.193 48.8386C351.459 48.8386 351.459 49.2622 351.459 50.1094C351.459 62.394 351.459 74.6785 351.459 86.9631C351.459 87.3867 351.459 87.8103 351.459 88.2339C352.724 86.5394 353.568 85.2686 354.411 83.9978C358.208 78.4909 362.426 73.4077 366.222 67.9008C366.644 67.0536 366.644 66.63 366.222 65.7828C362.426 60.2759 358.208 54.7691 354.411 49.6858C353.99 49.2622 353.99 48.8386 353.568 48.415C355.677 48.415 357.364 48.415 359.051 48.415C361.582 48.415 364.113 48.415 367.066 48.415C367.909 48.415 368.331 48.8386 368.753 49.2622C370.44 52.2275 372.549 55.1927 374.658 58.1579C375.08 59.0051 375.502 59.0051 375.924 58.1579C377.611 55.1927 379.72 52.2275 381.408 49.2622C383.095 49.2622 383.095 48.8386 383.938 48.8386C388.157 48.8386 392.797 48.8386 397.436 48.8386C395.327 51.8038 393.64 54.3455 391.953 56.8871C389.844 60.2759 387.313 63.2412 385.204 66.63C384.782 67.0536 384.782 67.4772 385.204 68.3244C389.844 75.1021 394.906 81.8798 399.546 88.2339C399.546 88.2339 399.546 88.6575 399.546 89.0811C399.546 88.6575 399.546 88.6575 399.546 89.0811Z" fill="#333333"/>
<path d="M264.563 49.6858C264.563 49.2622 264.563 49.2622 264.563 48.8386C264.563 47.9914 264.563 47.9914 263.72 47.9914C260.345 47.9914 256.971 47.9914 254.018 47.9914C253.174 47.9914 253.174 48.415 253.174 48.8386C253.174 50.1094 253.174 51.8039 253.174 53.4983C251.909 51.8039 250.643 50.533 248.956 49.6858C241.363 45.0262 230.396 47.1442 224.913 54.3455C218.164 62.8176 219.007 77.2202 226.6 85.2686C233.349 92.0463 244.738 92.0463 251.487 85.2686C251.487 85.2686 251.487 85.2686 251.909 85.2686V86.5395C251.909 93.3171 251.909 100.095 251.909 106.449C251.909 107.296 251.909 107.72 253.174 107.72C256.549 107.72 259.923 107.72 262.876 107.72C264.142 107.72 264.563 107.296 264.563 106.025C264.563 87.3867 264.563 68.7481 264.563 49.6858ZM243.051 78.9146C236.724 78.9146 232.927 75.1021 232.927 68.3245C232.927 61.9704 236.724 58.1579 243.051 58.1579C248.956 58.1579 253.174 62.394 253.174 68.3245C253.174 75.1021 248.956 78.9146 243.051 78.9146Z" fill="#333333"/>
<path d="M310.962 65.783C310.119 60.2761 307.588 55.1929 303.37 51.3804C297.042 45.8736 284.81 46.7208 280.17 53.0749V51.3804C280.17 43.7556 280.17 35.7071 280.17 28.0822C280.17 26.8114 279.748 26.3878 278.904 26.3878C275.952 26.3878 272.577 26.3878 269.625 26.3878C268.359 26.3878 267.937 26.8114 267.937 28.0822C267.937 47.9916 267.937 67.4774 267.937 87.3869C267.937 87.8105 267.937 87.8105 267.937 88.2341C267.937 89.0813 268.359 89.0813 268.781 89.0813C272.155 89.0813 275.108 89.0813 278.483 89.0813C279.326 89.0813 279.326 88.6577 279.326 88.2341C279.326 86.9632 279.326 85.6924 279.326 83.998C280.17 84.4216 280.592 85.2688 281.014 85.6924C288.606 92.8937 301.261 90.3521 307.166 82.7272C310.541 77.6439 311.384 71.7135 310.962 65.783ZM284.81 78.4911C281.014 77.2203 279.326 74.2551 278.904 70.8663C278.483 68.7482 278.904 66.6302 279.748 64.9358C281.435 60.6997 285.653 58.5817 290.293 59.4289C294.933 60.2761 297.886 63.2414 298.308 67.901C298.308 68.7482 298.308 69.1718 298.308 69.5954C298.308 78.0675 291.137 80.1856 284.81 78.4911Z" fill="#333333"/>
<path d="M170.921 89.9283C162.485 89.5047 155.736 86.963 151.517 79.3381C145.612 68.748 148.987 51.3802 165.859 47.5678C171.343 46.297 176.826 46.7206 181.888 49.2622C183.154 49.6858 184.419 50.533 185.263 51.8038C185.684 52.2274 186.106 52.651 185.263 53.0746C182.732 55.6163 180.623 58.1579 178.092 60.6995C177.67 61.1231 177.67 61.1231 177.248 60.6995C174.295 57.7343 170.499 57.3107 167.125 59.0051C163.328 60.6995 162.063 63.6648 161.641 67.4772C161.219 70.866 162.063 73.8313 164.172 75.9493C167.546 79.3381 173.452 79.7617 176.826 76.3729C177.67 75.9493 177.67 75.9493 178.514 76.3729C180.623 78.9145 183.154 81.0326 185.263 83.5742C186.106 84.4214 185.684 84.845 185.263 85.2686C181.466 88.6574 177.248 89.5047 172.186 89.9283C171.343 89.9283 171.343 89.9283 170.921 89.9283Z" fill="#333333"/>
<path d="M188.638 56.8871C188.638 46.7206 188.638 36.9777 188.638 26.8112C188.638 25.5404 189.06 25.1168 190.325 25.1168C193.7 25.1168 197.074 25.1168 200.449 25.1168C201.292 25.1168 201.714 25.5404 201.714 26.3876C201.714 46.7206 201.714 67.0536 201.714 87.8103C201.714 88.6575 201.292 89.0811 200.449 89.0811C197.074 89.0811 193.7 89.0811 190.325 89.0811C189.482 89.0811 189.06 88.6575 189.06 87.8103C188.638 77.6438 188.638 67.4772 188.638 56.8871Z" fill="#333333"/>
<path d="M217.741 68.3244C217.741 74.6785 217.741 81.0325 217.741 87.3866C217.741 88.6574 217.319 88.6574 216.476 88.6574C213.101 88.6574 209.727 88.6574 206.352 88.6574C205.509 88.6574 205.509 88.6574 205.509 87.8102C205.509 74.6785 205.509 61.9703 205.509 48.8386C205.509 47.9913 205.93 47.9913 206.352 47.9913C209.727 47.9913 213.523 47.9913 216.898 47.9913C217.741 47.9913 217.741 48.415 217.741 49.2622C217.741 55.6162 217.741 61.9703 217.741 68.3244Z" fill="#333333"/>
<path d="M218.587 35.2831C218.587 39.5192 215.634 42.4844 211.416 42.4844C207.198 42.4844 203.823 39.0956 203.823 35.2831C203.823 31.0471 207.198 28.0819 210.994 28.0819C215.634 28.0819 218.587 31.0471 218.587 35.2831Z" fill="#333333"/>
<g clip-path="url(#clip0_2_540)">
<path d="M74.883 113.801C73.3273 114.449 71.8247 114.213 70.4208 113.405C58.5974 106.561 46.7816 99.7023 34.9658 92.8357C32.8333 91.5935 31.8316 89.7645 31.8316 87.2343C31.8695 69.5992 31.8544 51.9642 31.8544 34.3368C31.8544 29.8861 32.765 28.5676 37.2197 28.179C43.2907 27.6455 49.0886 25.8698 55.0155 24.6962C61.0486 23.492 67.021 22.0288 73.0313 20.6951C73.7598 20.5351 74.5263 20.4131 75.2093 20.9009C74.7692 21.8535 74.7009 22.8595 74.7009 23.8883C74.716 28.0342 74.716 32.1724 74.7084 36.3106C74.7084 37.0651 74.754 37.8196 74.5111 38.5512C74.4504 38.696 74.3745 38.8255 74.2835 38.9322C74.2531 38.9703 74.2304 39.0008 74.2 39.0313C73.7674 39.4886 73.1376 39.6181 72.5229 39.7477C64.3573 41.4548 56.1841 43.1543 48.0034 44.8461C47.419 44.9681 46.8271 44.8919 46.2352 44.869C44.5429 44.808 43.7764 45.5168 43.6474 47.2391C43.617 47.6735 43.6246 48.1079 43.6246 48.5347C43.6246 59.3566 43.6702 70.1708 43.5943 80.9851C43.5715 83.2637 44.3532 84.6508 46.3566 85.771C53.7405 89.9016 61.0182 94.2304 68.3566 98.4448C69.7605 99.2603 71.21 99.969 72.8795 100.045C73.4563 100.076 73.9799 100.228 74.3214 100.701C74.3442 100.724 74.3594 100.739 74.3669 100.762C74.4125 100.823 74.4428 100.891 74.4808 100.96C74.9285 102.926 74.6401 104.915 74.7009 106.897C74.7692 109.198 74.5946 111.507 74.883 113.801Z" fill="#FEC04D"/>
<path d="M114.709 33.9782C114.535 38.9472 114.55 43.9313 114.702 48.9002C114.815 52.665 113.191 55.5457 110.74 58.0988C109.222 59.6763 107.56 61.1243 105.777 62.801C107.189 63.0448 108.334 63.2811 109.496 63.4335C111.15 63.6393 112.546 64.4242 113.927 65.2702C114.489 65.6131 114.679 66.0932 114.671 66.7563C114.656 73.8438 114.686 80.9238 114.641 88.0037C114.626 90.0537 113.571 91.6313 111.841 92.6449C99.9792 99.5495 88.1103 106.424 76.2262 113.298C75.824 113.534 75.3307 113.641 74.883 113.801C74.0103 113.679 74.1772 112.993 74.1848 112.429C74.1848 108.558 74.2 104.686 74.2076 100.807C74.2455 100.769 74.2835 100.738 74.3214 100.7C75.6191 99.5191 77.3873 99.2142 78.8595 98.3302C86.122 93.9938 93.4452 89.7565 100.806 85.5954C102.537 84.6276 103.197 83.3701 103.189 81.4191C103.136 70.3382 103.166 59.2572 103.159 48.1762C103.159 47.4751 103.197 46.7663 102.924 46.0957C102.605 45.3336 102.043 44.7849 101.209 44.8458C98.3476 45.044 95.6839 44.0456 92.9595 43.4817C87.2679 42.308 81.5991 41.0277 75.9226 39.7626C75.3155 39.633 74.5794 39.6788 74.2 39.031C74.1696 38.9929 74.1469 38.9472 74.1241 38.8938C74.1469 33.4067 74.1696 27.9271 74.1924 22.44C74.1924 21.7008 74.0254 20.8548 75.2093 20.9006C83.4811 22.7906 91.7681 24.6425 100.032 26.5935C103.121 27.3251 106.217 27.8205 109.389 28.0796C113.055 28.3844 114.838 30.2668 114.709 33.9782Z" fill="#FEA400"/>
<path d="M97.2169 65.8189C97.1941 71.3365 97.1941 76.8465 97.2169 82.3641C97.2169 83.0272 97.0727 83.4616 96.4276 83.7664C89.1803 87.1959 81.9481 90.6406 74.7084 94.0853C74.5718 94.1462 74.4049 94.131 74.1772 94.1615C74.1772 86.7157 74.1392 79.3081 74.1924 71.9005C74.2227 68.5243 74.3062 68.4939 77.6605 67.9223C83.815 66.8782 89.9695 65.8875 96.1241 64.8358C97.0271 64.6834 97.2244 64.973 97.2169 65.8189Z" fill="#FEFEFE"/>
<path d="M97.2321 61.7493C97.2548 62.7629 96.7008 62.8772 95.9875 62.9915C89.0893 64.1042 82.191 65.2092 75.2928 66.3371C74.458 66.4743 74.1696 66.2533 74.1848 65.3616C74.2303 62.2218 74.2 59.0895 74.2 55.9497H74.1545C74.1545 52.9775 74.2076 50.0053 74.1241 47.0331C74.0937 45.7527 74.2228 45.265 75.7481 45.5317C82.5249 46.7282 89.3245 47.7799 96.1241 48.8469C96.9057 48.9688 97.2321 49.2279 97.2245 50.0662C97.1865 53.9606 97.1638 57.8549 97.2321 61.7493Z" fill="#FEFEFE"/>
<path d="M103.569 54.2654C103.569 51.8267 103.599 49.3956 103.561 46.9645C103.531 44.9602 102.354 43.9694 100.412 44.32C99.8654 44.4267 99.3569 44.4114 98.8333 44.2971C90.6525 42.5138 82.4718 40.7152 74.2835 38.9319C74.2303 38.9167 74.1772 38.9091 74.1241 38.8938C66.5429 40.479 58.9616 42.087 51.3728 43.6417C49.8247 43.9542 48.2917 44.6401 46.6905 44.4343C44.2545 44.1371 43.1693 44.983 43.1693 47.4827C43.1617 59.0438 43.1769 70.6049 43.1541 82.1736C43.1541 83.7359 43.7309 84.78 45.1272 85.565C49.1569 87.8208 53.0499 90.3434 57.1555 92.4544C62.7864 95.3504 67.6053 99.923 74.2076 100.807C74.2607 100.792 74.3138 100.777 74.3669 100.761C75.5508 100.449 76.7119 100.075 77.7895 99.4581C85.7046 94.855 93.6046 90.2367 101.558 85.6945C103.068 84.8334 103.607 83.7283 103.591 82.0212C103.538 72.7693 103.569 63.5173 103.569 54.2654ZM100.806 85.5955C93.4452 89.7565 86.122 93.9938 78.8595 98.3302C77.3873 99.2142 75.6191 99.5191 74.3214 100.7C73.9799 100.228 73.4563 100.075 72.8795 100.045C71.21 99.9687 69.7605 99.26 68.3566 98.4445C61.0182 94.2301 53.7405 89.9013 46.3566 85.7707C44.3531 84.6505 43.5715 83.2634 43.5943 80.9847C43.6702 70.1705 43.6246 59.3563 43.6246 48.5344C43.6246 48.1076 43.6246 47.6732 43.6474 47.2388C43.7764 45.5165 44.5429 44.8077 46.2352 44.8687C46.8271 44.8916 47.419 44.9678 48.0034 44.8458C56.1841 43.154 64.3573 41.4545 72.5228 39.7474C73.1375 39.6178 73.7674 39.4883 74.2 39.031C74.5794 39.6788 75.3155 39.6331 75.9226 39.7626C81.5991 41.0277 87.2679 42.308 92.9595 43.4817C95.6839 44.0456 98.3476 45.044 101.209 44.8458C102.043 44.7849 102.605 45.3336 102.924 46.0957C103.197 46.7663 103.159 47.4751 103.159 48.1762C103.167 59.2572 103.136 70.3382 103.189 81.4191C103.189 83.3701 102.537 84.6276 100.806 85.5955Z" fill="#FEFEFE"/>
<path d="M97.2169 65.8189C97.1941 71.3365 97.1941 76.8465 97.2169 82.3641C97.2169 83.0272 97.0727 83.4616 96.4276 83.7664C89.1803 87.1959 81.9481 90.6406 74.7084 94.0853C74.5718 94.1462 74.4049 94.131 74.1772 94.1615C74.1772 86.7157 74.1392 79.3081 74.1924 71.9005C74.2227 68.5243 74.3062 68.4939 77.6605 67.9223C83.815 66.8782 89.9695 65.8875 96.1241 64.8358C97.0271 64.6834 97.2244 64.973 97.2169 65.8189Z" fill="#FEA400"/>
<path d="M97.2321 61.7493C97.2548 62.7629 96.7008 62.8772 95.9875 62.9915C89.0893 64.1042 82.191 65.2092 75.2928 66.3371C74.458 66.4743 74.1696 66.2533 74.1848 65.3616C74.2303 62.2218 74.2 59.0895 74.2 55.9497H74.1545C74.1545 52.9775 74.2076 50.0053 74.1241 47.0331C74.0937 45.7527 74.2228 45.265 75.7481 45.5317C82.5249 46.7282 89.3245 47.7799 96.1241 48.8469C96.9057 48.9688 97.2321 49.2279 97.2245 50.0662C97.1865 53.9606 97.1638 57.8549 97.2321 61.7493Z" fill="#FEA400"/>
</g>
<defs>
<clipPath id="clip0_2_540">
<rect width="82.8851" height="93.6167" fill="white" transform="translate(31.8316 20.55)"/>
</clipPath>
</defs>
</svg>
