<svg width="14" height="17" viewBox="0 0 14 17" fill="none" xmlns="http://www.w3.org/2000/svg">
<g id="PayPal">
<path id="Fill 7" fill-rule="evenodd" clip-rule="evenodd" d="M4.26777 16.0605L4.54368 14.2491L3.92906 14.2343H0.994141L3.03381 0.867245C3.04016 0.826768 3.0607 0.789193 3.0907 0.762463C3.12085 0.735733 3.15927 0.721069 3.19947 0.721069H8.14819C9.79122 0.721069 10.925 1.07436 11.5169 1.77179C11.7944 2.09897 11.9711 2.44096 12.0567 2.81717C12.1464 3.21201 12.1479 3.68368 12.0604 4.25906L12.054 4.30092V4.66964L12.3316 4.83216C12.5652 4.96031 12.751 5.10694 12.8934 5.27481C13.1308 5.55463 13.2843 5.91022 13.3492 6.33164C13.4163 6.76513 13.3941 7.28109 13.2843 7.86518C13.1577 8.53695 12.953 9.12211 12.6765 9.60081C12.4223 10.0419 12.0984 10.4079 11.7137 10.6914C11.3465 10.9608 10.9102 11.1654 10.4169 11.2963C9.93885 11.4249 9.39384 11.4898 8.79606 11.4898H8.41095C8.13563 11.4898 7.86815 11.5923 7.65815 11.776C7.44757 11.9636 7.30836 12.2199 7.26565 12.5002L7.23654 12.6633L6.74901 15.8561L6.72699 15.9733C6.72108 16.0104 6.71103 16.0289 6.69625 16.0414C6.6831 16.0528 6.66418 16.0605 6.64571 16.0605H4.26777Z" fill="#28356A"/>
<path id="Fill 8" fill-rule="evenodd" clip-rule="evenodd" d="M12.5951 4.34338C12.5805 4.44099 12.5635 4.54073 12.5446 4.64322C11.892 8.10652 9.65914 9.30296 6.80756 9.30296H5.35562C5.00686 9.30296 4.71292 9.56461 4.65868 9.92019L3.70476 16.1743C3.66944 16.4078 3.84353 16.6181 4.0714 16.6181H6.64663C6.9515 16.6181 7.21056 16.3892 7.25859 16.0783L7.28386 15.9432L7.76873 12.7629L7.79991 12.5885C7.84735 12.2766 8.107 12.0474 8.41187 12.0474H8.79698C11.292 12.0474 13.2452 11.0005 13.8161 7.97073C14.0544 6.7051 13.931 5.64827 13.3 4.90502C13.1091 4.68095 12.8722 4.49491 12.5951 4.34338Z" fill="#2F80ED"/>
<path id="Fill 9" fill-rule="evenodd" clip-rule="evenodd" d="M11.912 4.06217C11.8123 4.03208 11.7094 4.00489 11.6039 3.9803C11.4978 3.95632 11.3892 3.93508 11.2773 3.91645C10.8858 3.85108 10.4568 3.82007 9.99736 3.82007H6.11857C6.02296 3.82007 5.93222 3.84237 5.85109 3.88269C5.67212 3.97159 5.53927 4.14663 5.50705 4.36093L4.68185 9.76285L4.6582 9.92033C4.71244 9.56474 5.00637 9.30309 5.35514 9.30309H6.80708C9.65865 9.30309 11.8915 8.10605 12.5441 4.64335C12.5636 4.54086 12.58 4.44112 12.5946 4.34352C12.4295 4.25294 12.2507 4.1755 12.0582 4.10952C12.0106 4.09317 11.9615 4.07744 11.912 4.06217Z" fill="#28356A"/>
<path id="Fill 11" fill-rule="evenodd" clip-rule="evenodd" d="M5.50679 4.3609C5.53901 4.1466 5.67186 3.97156 5.85083 3.88327C5.93255 3.84279 6.0227 3.82049 6.11831 3.82049H9.9971C10.4566 3.82049 10.8856 3.85165 11.277 3.91703C11.3889 3.93551 11.4975 3.95689 11.6036 3.98087C11.7091 4.00531 11.812 4.03265 11.9117 4.06259C11.9613 4.07787 12.0103 4.09375 12.0583 4.10948C12.2509 4.17547 12.4299 4.25352 12.5949 4.34349C12.7891 3.06365 12.5933 2.19225 11.9239 1.40318C11.1857 0.534375 9.85361 0.162598 8.14896 0.162598H3.20009C2.85192 0.162598 2.55488 0.424247 2.50109 0.780444L0.439846 14.2849C0.399206 14.5521 0.598562 14.7931 0.859246 14.7931H3.91446L5.50679 4.3609Z" fill="#28356A"/>
</g>
</svg>
