<svg width="30" height="10" viewBox="0 0 30 10" fill="none" xmlns="http://www.w3.org/2000/svg">
<path id="visa-logo" fill-rule="evenodd" clip-rule="evenodd" d="M7.43781 9.82277H4.86314L2.93244 2.24042C2.84081 1.89163 2.64623 1.58329 2.36002 1.43796C1.64573 1.07274 0.858644 0.782085 0 0.635493V0.343573H4.1476C4.72003 0.343573 5.14935 0.782085 5.22091 1.29137L6.22266 6.76076L8.79608 0.343573H11.2992L7.43781 9.82277ZM12.7303 9.82277H10.2988L12.301 0.343573H14.7326L12.7303 9.82277ZM17.8784 2.96964C17.95 2.4591 18.3793 2.16718 18.8802 2.16718C19.6672 2.09388 20.5246 2.24047 21.2402 2.60443L21.6695 0.563512C20.954 0.271592 20.1669 0.125 19.4526 0.125C17.0926 0.125 15.3753 1.43801 15.3753 3.2603C15.3753 4.6466 16.5917 5.37451 17.4503 5.81302C18.3793 6.25027 18.737 6.54219 18.6655 6.97944C18.6655 7.63531 17.95 7.92723 17.2357 7.92723C16.377 7.92723 15.5184 7.70861 14.7326 7.34339L14.3032 9.38557C15.1619 9.74952 16.0908 9.89611 16.9495 9.89611C19.5957 9.96814 21.2402 8.6564 21.2402 6.68752C21.2402 4.20809 17.8784 4.06276 17.8784 2.96964ZM29.7499 9.82277L27.8192 0.343573H25.7454C25.3161 0.343573 24.8868 0.635493 24.7437 1.07274L21.1685 9.82277H23.6716L24.1712 8.43773H27.2468L27.533 9.82277H29.7499ZM26.1033 2.89625L26.8176 6.46879H24.8154L26.1033 2.89625Z" fill="#28356A"/>
</svg>
